<?xml version="1.0" encoding="utf-8"?>
<!-- Generator: Adobe Illustrator 22.0.1, SVG Export Plug-In . SVG Version: 6.00 Build 0)  -->
<svg version="1.1" id="레이어_1" xmlns="http://www.w3.org/2000/svg" xmlns:xlink="http://www.w3.org/1999/xlink" x="0px"
	 y="0px" viewBox="0 0 1440 219.4" style="enable-background:new 0 0 1440 219.4;" xml:space="preserve">
<style type="text/css">
	.st0{fill:#F7FF00;}
</style>
<g>
	<path class="st0" d="M53.1,4.6l47.5,88.8h2l47.2-88.8H198l-75.1,132.6v73.4H80.1v-73.4L5,4.6H53.1z"/>
	<path class="st0" d="M220.2,4.6h138.3v35.3h-95.6V90h88.5v35.3h-88.5v50.1h95.9v35.3H220.2V4.6z"/>
	<path class="st0" d="M516.5,4.6v143.7c0,40.1-28.2,65.2-69.7,65.2c-37.3,0-66.6-19.6-66.3-60.3h42.7c0.3,16.2,10.2,25.9,25.6,25.9
		c16.2,0,25.3-10.5,25.3-30.7V4.6H516.5z"/>
	<path class="st0" d="M593.9,210.7h-42.7V4.6h42.7V210.7z"/>
	<path class="st0" d="M695.8,4.6h42.7V96h2.8l74.9-91.4h51.5l-76.8,92.2l77.7,113.8h-51.2l-57.2-85.1l-21.6,26.2v58.9h-42.7V4.6z"/>
	<path class="st0" d="M931.7,210.7H889V4.6h42.7V210.7z"/>
	<path class="st0" d="M1019.4,4.6l57.2,139.7h2.3l57.2-139.7h52.9v206.1h-41.6V75.8h-1.7l-53.8,134.1h-28.5l-53.8-134.6h-1.7v135.5
		h-41.6V4.6H1019.4z"/>
</g>
</svg>
