<svg xmlns="http://www.w3.org/2000/svg" viewBox="0 0 1184 208.91"><defs><style>.cls-1{fill:#f7ff00;}</style></defs><title>자산 1</title><g id="레이어_2" data-name="레이어 2"><g id="레이어_1-2" data-name="레이어 1"><path class="cls-1" d="M48.1,0,95.63,88.8h2L144.87,0H193L117.83,132.63v73.44H75.14V132.63L0,0Z"/><path class="cls-1" d="M215.17,0H353.49V35.29H257.86v50.1h88.52v35.29H257.86v50.09h95.92v35.3H215.17Z"/><path class="cls-1" d="M511.45,0V143.73c0,40.13-28.17,65.18-69.73,65.18-37.28,0-66.6-19.64-66.31-60.34H418.1c.28,16.23,10.24,25.9,25.61,25.9,16.23,0,25.34-10.53,25.34-30.74V0Z"/><path class="cls-1" d="M588.87,206.07h-42.7V0h42.7Z"/><path class="cls-1" d="M690.76,0h42.69V91.36h2.85L811.15,0h51.52L785.82,92.22l77.7,113.85H812.29L755.08,121l-21.63,26.19v58.92H690.76Z"/><path class="cls-1" d="M926.7,206.07H884V0H926.7Z"/><path class="cls-1" d="M1014.37,0l57.2,139.75h2.28L1131.06,0H1184V206.07h-41.56V71.16h-1.7l-53.8,134.05h-28.46L1004.69,70.59H1003V206.07H961.43V0Z"/></g></g></svg>