<?xml version="1.0" encoding="UTF-8"?><svg id="_레이어_2" xmlns="http://www.w3.org/2000/svg" viewBox="0 0 360 280.39"><defs><style>.cls-1{fill:#f7ff00;}</style></defs><g id="_레이어_1-2"><path class="cls-1" d="M29.41,0l29.06,54.29h1.22L88.56,0h29.41l-45.94,81.08v44.89h-26.1v-44.89L0,0h29.41Z"/><path class="cls-1" d="M131.54,0h84.56v21.58h-58.46v30.62h54.11v21.58h-54.11v30.62h58.64v21.58h-84.74V0Z"/><path class="cls-1" d="M312.67,0v87.87c0,24.45-17.31,39.85-42.63,39.85-22.79,0-40.63-12.01-40.54-36.89h26.1c.17,10,6.26,15.83,15.66,15.83,10,0,15.49-6.44,15.49-18.79V0h25.93Z"/><path class="cls-1" d="M360,125.97h-26.1V0h26.1v125.97Z"/><path class="cls-1" d="M8.5,154.42h26.1v55.85h1.74l45.76-55.85h31.49l-46.98,56.38,47.5,69.6h-31.32l-34.97-52.03-13.22,16.01v36.02H8.5v-125.97Z"/><path class="cls-1" d="M177.83,280.39h-26.1v-125.97h26.1v125.97Z"/><path class="cls-1" d="M256.3,154.42l34.97,85.43h1.39l34.97-85.43h32.36v125.97h-25.4v-82.47h-1.04l-32.89,81.95h-17.4l-32.89-82.3h-1.04v82.82h-25.4v-125.97h32.36Z"/></g></svg>